<svg xmlns="http://www.w3.org/2000/svg" xmlns:xlink="http://www.w3.org/1999/xlink" version="1.1" x="0px" y="0px" viewBox="0 0 90 90" enable-background="new 0 0 90 90" xml:space="preserve" fill="currentColor">
  <rect x="13.488" y="34.144" width="56.713" height="3.588"/>
  <rect x="26.973" y="40.303" width="29.74" height="3.592"/>
  <rect x="13.488" y="54.798" width="13.485" height="3.587"/>
  <rect x="31.231" y="54.798" width="15.712" height="3.587"/>
  <path d="M82.36,6.847H8.097c-3.868,0-7.014,3.146-7.014,7.014v51.402c0,3.866,3.146,7.015,7.014,7.015h48.347l0.208-1.503  c-1.176-1.007-2.191-2.201-2.998-3.534H8.097c-1.09,0-1.977-0.888-1.977-1.978V13.86c0-1.089,0.887-1.977,1.977-1.977H82.36  c1.089,0,1.977,0.888,1.977,1.977v51.402c0,1.09-0.888,1.978-1.977,1.978h-3.903c-0.805,1.333-1.82,2.527-2.996,3.534l0.208,1.503  h6.691c3.869,0,7.015-3.148,7.015-7.015V13.86C89.375,9.993,86.229,6.847,82.36,6.847z"/>
  <path d="M76.971,59.776c0-6.03-4.885-10.916-10.914-10.916c-6.027,0-10.916,4.886-10.916,10.916c0,3.989,2.144,7.475,5.34,9.38  l-1.949,13.997l7.527-3.898l7.525,3.898l-1.951-13.997C74.829,67.251,76.971,63.766,76.971,59.776z M66.057,54.459  c2.936,0,5.313,2.381,5.313,5.317c0,2.933-2.377,5.312-5.313,5.312c-2.934,0-5.314-2.379-5.314-5.312  C60.742,56.84,63.123,54.459,66.057,54.459z"/>
  <circle cx="41.744" cy="24.098" r="5.868"/>
</svg>