<?xml version="1.0" standalone="no"?>
<!DOCTYPE svg PUBLIC "-//W3C//DTD SVG 20010904//EN"
 "http://www.w3.org/TR/2001/REC-SVG-20010904/DTD/svg10.dtd">
<svg version="1.0" xmlns="http://www.w3.org/2000/svg"
 width="300.000000pt" height="283.000000pt" viewBox="0 0 300.000000 283.000000"
 preserveAspectRatio="xMidYMid meet">
<metadata>
Created by potrace 1.10, written by Peter Selinger 2001-2011
</metadata>
<g transform="translate(0.000000,283.000000) scale(0.100000,-0.100000)"
fill="#000000" stroke="none">
<path d="M1449 2620 c-296 -29 -565 -162 -779 -386 -86 -89 -175 -213 -224
-312 -44 -86 -24 -83 23 4 245 457 779 681 1281 538 376 -108 671 -407 777
-789 26 -93 28 -114 28 -285 0 -172 -2 -192 -28 -285 -123 -444 -489 -764
-940 -825 -457 -61 -921 181 -1126 587 -17 35 -36 63 -41 63 -15 0 50 -124
119 -226 98 -145 228 -270 384 -367 382 -240 884 -243 1278 -7 373 225 599
625 599 1061 0 513 -326 981 -808 1158 -160 59 -378 87 -543 71z m411 -74
c354 -93 630 -321 785 -648 158 -334 154 -700 -10 -1035 -203 -412 -602 -662
-1061 -663 -112 -1 -239 11 -251 23 -2 2 65 7 149 10 118 4 176 11 251 31 445
115 784 478 862 922 19 110 19 295 0 404 -76 429 -391 784 -809 910 -102 31
-174 42 -316 49 -134 7 -135 7 -80 18 34 8 118 11 220 8 136 -3 182 -8 260
-29z"/>
<path d="M402 1699 c-99 -17 -171 -66 -217 -151 -28 -49 -30 -61 -30 -153 0
-92 2 -104 30 -154 37 -66 92 -115 162 -141 46 -17 77 -20 226 -20 l172 1 45
71 c25 40 46 76 48 80 2 4 -89 8 -203 8 -230 0 -256 6 -298 64 -30 43 -30 129
0 172 40 55 73 64 246 64 l154 0 52 78 c28 43 51 81 51 85 0 10 -375 6 -438
-4z m358 -45 c0 -3 -9 -19 -21 -35 -20 -28 -22 -29 -112 -29 -160 -1 -234 -14
-275 -47 -55 -45 -77 -88 -76 -153 1 -82 36 -136 111 -174 26 -13 65 -16 196
-16 90 0 167 -3 170 -6 7 -8 -7 -36 -29 -58 -21 -22 -278 -23 -350 -1 -61 18
-116 62 -151 122 -39 66 -44 178 -13 251 27 63 86 117 150 137 45 14 400 22
400 9z"/>
<path d="M884 1688 c3 -13 36 -144 73 -293 58 -233 70 -274 94 -297 37 -38 86
-38 121 0 14 15 63 100 109 189 46 90 86 163 89 163 3 0 13 -17 22 -38 52
-112 161 -309 179 -324 26 -22 77 -23 105 -3 30 20 35 38 108 331 36 143 68
268 72 277 5 15 -4 17 -88 17 l-94 0 -33 -167 c-19 -93 -35 -169 -36 -171 -1
-1 -34 62 -74 140 -40 79 -86 155 -102 171 -35 32 -86 36 -117 10 -12 -10 -57
-88 -101 -173 -44 -85 -82 -148 -84 -140 -2 8 -18 85 -34 170 l-29 155 -93 3
c-93 3 -94 3 -87 -20z m519 -40 c13 -13 50 -75 84 -138 34 -63 73 -126 87
-139 l27 -25 24 25 c19 19 30 52 51 149 14 69 30 128 33 133 9 9 79 13 87 4 4
-4 -21 -119 -56 -256 -92 -366 -105 -372 -242 -111 -84 160 -94 176 -115 184
-31 12 -61 -25 -143 -179 -45 -86 -93 -163 -106 -171 -29 -19 -57 -6 -72 33
-14 35 -122 467 -122 488 0 11 11 15 44 15 l45 0 16 -77 c39 -182 59 -233 89
-233 23 0 57 48 121 168 83 159 103 175 148 130z"/>
<path d="M1900 1393 l0 -318 82 2 81 1 -2 119 -2 119 143 -4 143 -4 50 78 c28
42 52 81 54 86 2 6 -75 8 -193 6 l-197 -3 3 34 3 33 152 -1 151 -2 56 81 c31
45 56 83 56 86 0 2 -130 4 -290 4 l-290 0 0 -317z m490 258 c0 -4 -9 -19 -20
-33 -18 -24 -25 -25 -161 -31 -162 -7 -179 -14 -179 -77 0 -66 20 -75 186 -78
152 -4 160 -7 126 -49 -16 -20 -27 -22 -144 -25 -163 -4 -170 -9 -175 -130 -5
-108 -6 -110 -45 -106 l-33 3 -3 255 c-1 140 0 260 3 267 3 10 56 13 225 13
121 0 220 -4 220 -9z"/>
</g>
</svg>
